<?xml version="1.0" standalone="no"?>
<!DOCTYPE svg PUBLIC "-//W3C//DTD SVG 20010904//EN"
 "http://www.w3.org/TR/2001/REC-SVG-20010904/DTD/svg10.dtd">
<svg version="1.0" xmlns="http://www.w3.org/2000/svg"
 width="1274.000000pt" height="1274.000000pt" viewBox="0 0 1274.000000 1274.000000"
 preserveAspectRatio="xMidYMid meet">
<metadata>
Created by potrace 1.11, written by Peter Selinger 2001-2013
</metadata>
<g transform="translate(0.000000,1274.000000) scale(0.100000,-0.100000)"
fill="#000000" stroke="none">
<path d="M206 10785 c-26 -13 -50 -37 -64 -63 l-23 -41 0 -2828 c1 -1856 4
-2838 11 -2858 19 -57 22 -65 29 -65 4 0 16 -8 27 -18 25 -24 68 -36 122 -35
23 1 42 -3 42 -8 0 -6 -3 -8 -8 -5 -4 2 -16 -2 -27 -10 -10 -8 -14 -14 -8 -14
7 0 15 5 19 11 5 8 9 8 14 -1 6 -9 10 -7 14 7 6 18 15 20 86 20 43 0 77 -3 75
-7 -2 -3 1 -12 6 -20 8 -12 9 -11 7 5 -3 17 4 20 60 21 34 2 62 -1 62 -6 0 -5
-9 -7 -19 -5 -15 3 -18 -1 -15 -13 5 -14 2 -13 -10 2 -9 11 -16 15 -16 9 0 -6
6 -16 14 -22 11 -10 17 -8 25 6 6 10 11 14 11 9 0 -5 7 -2 17 5 20 17 165 21
175 5 6 -8 8 -8 8 1 0 15 70 15 70 0 0 -8 3 -9 8 -1 9 12 124 15 116 3 -3 -5
-10 -7 -15 -4 -5 3 -6 -1 -3 -10 6 -14 8 -14 19 2 11 14 29 18 89 19 42 1 73
-3 70 -7 -3 -5 -10 -7 -15 -4 -5 3 -6 -1 -3 -10 6 -14 8 -14 19 2 12 16 31 18
149 19 74 1 134 -2 131 -5 -2 -4 1 -13 6 -21 8 -12 9 -11 7 5 -3 18 3 20 74
20 42 1 80 4 84 8 4 4 14 2 21 -5 11 -9 16 -9 23 1 10 17 20 1 20 -30 0 -13 0
-306 1 -651 2 -539 4 -631 17 -660 9 -18 16 -40 16 -48 1 -8 10 -15 21 -15 11
0 19 -6 17 -13 -1 -8 1 -11 5 -9 15 9 55 -12 47 -25 -6 -9 -3 -9 9 1 10 8 27
11 42 7 14 -4 25 -2 25 4 0 5 9 6 23 2 12 -4 152 -7 310 -7 176 1 290 -3 294
-8 4 -6 0 -7 -8 -2 -8 5 -11 4 -6 -1 5 -5 14 -9 20 -9 7 0 12 -5 12 -12 0 -6
3 -14 7 -17 5 -3 6 -3 3 1 -3 3 0 12 6 19 9 11 16 10 37 -3 l27 -15 -25 20
c-17 14 -28 18 -37 11 -8 -7 -15 -4 -23 12 -10 17 -9 20 1 13 20 -12 271 -12
288 0 12 9 13 8 6 -3 -6 -11 -4 -13 9 -8 11 5 15 3 10 -5 -5 -8 -3 -8 7 -2 18
12 499 13 499 2 0 -5 -4 -6 -10 -3 -5 3 -10 1 -10 -4 0 -16 15 -13 30 3 7 9
25 14 46 11 21 -2 34 2 34 9 0 7 3 7 8 -1 4 -7 19 -11 31 -8 13 2 31 0 40 -6
12 -8 10 -8 -9 -3 -23 6 -23 5 -7 -8 16 -12 19 -22 17 -68 -4 -86 2 -1284 7
-1309 3 -21 21 -49 45 -73 21 -21 36 -44 32 -50 -5 -7 -3 -8 7 -2 19 12 52 5
62 -12 9 -16 37 -19 37 -4 0 5 -7 7 -15 4 -8 -4 -15 -2 -15 2 0 5 265 9 589 9
572 0 589 -1 585 -19 -2 -10 0 -15 4 -12 4 4 7 13 7 19 0 9 64 12 236 12 228
0 237 0 233 -19 -2 -10 0 -15 4 -12 4 4 7 13 7 19 0 9 180 12 716 12 697 0
717 -1 713 -19 -2 -10 0 -15 4 -12 4 4 7 13 7 19 0 9 64 12 236 12 228 0 237
0 233 -19 -2 -10 0 -15 4 -12 4 4 7 13 7 19 0 9 178 12 716 12 697 0 717 -1
713 -19 -2 -10 0 -15 4 -12 4 4 7 13 7 19 0 9 64 12 236 12 228 0 237 0 233
-19 -2 -10 0 -15 4 -12 4 4 7 13 7 19 0 9 259 12 1036 12 1011 0 1037 0 1033
-19 -2 -10 0 -15 4 -12 4 4 7 13 7 19 0 9 64 12 236 12 228 0 237 0 233 -19
-2 -10 0 -15 4 -12 4 4 7 13 7 19 0 9 91 12 355 11 195 0 358 4 361 8 3 5 11
-3 19 -17 7 -14 18 -25 23 -25 5 0 4 7 -3 15 -15 18 0 20 20 3 12 -11 12 -10
2 3 -6 9 -8 19 -4 23 4 4 0 6 -8 4 -8 -2 -19 -7 -23 -13 -5 -6 -7 -4 -4 5 3
13 12 15 48 11 5 0 8 -5 5 -9 -2 -4 4 -9 15 -9 18 -2 18 0 -3 17 -20 16 -21
21 -9 32 8 7 11 8 8 2 -4 -7 1 -18 11 -25 14 -11 15 -11 5 0 -8 10 -9 21 -1
40 11 29 19 60 20 79 2 16 8 15 28 -3 14 -13 17 -13 17 0 0 8 -4 12 -8 9 -4
-2 -10 0 -14 6 -3 6 1 13 9 16 9 3 16 10 16 16 0 5 -4 6 -10 3 -5 -3 -10 -1
-10 4 0 6 -5 11 -11 11 -8 0 -8 -4 0 -14 9 -10 8 -15 -2 -19 -8 -3 -13 3 -13
17 0 25 16 39 31 26 7 -6 11 -1 11 15 0 29 -4 31 -21 9 -11 -15 -12 -15 -18 5
-3 11 -1 19 4 15 5 -3 9 2 9 11 0 9 -4 14 -8 11 -5 -3 -9 1 -9 9 0 8 3 12 7
10 4 -3 16 5 26 18 17 19 17 20 1 8 -14 -11 -21 -11 -29 -3 -9 9 -8 12 5 12 9
0 17 4 17 10 0 5 -6 8 -12 6 -7 -1 -9 -1 -5 2 4 2 3 10 -3 18 -12 13 -5 38 8
30 4 -2 16 1 27 5 18 9 18 9 -2 5 -18 -3 -23 1 -23 16 0 10 -4 17 -8 14 -5 -3
-9 1 -9 9 0 8 4 12 8 10 3 -3 12 2 19 10 6 7 19 11 28 8 14 -4 15 -3 2 5 -10
8 -18 8 -27 0 -8 -6 -17 -8 -20 -4 -11 11 -12 36 -1 36 6 0 7 -8 3 -18 -5 -13
-4 -14 6 -5 10 10 9 17 -5 32 -22 24 -14 40 19 37 13 -2 22 1 19 6 -3 5 -12 7
-19 5 -7 -3 -16 8 -22 27 -9 28 -7 35 8 44 21 14 15 42 -10 42 -13 0 -14 2 -1
9 8 6 17 8 20 6 3 -2 7 6 7 17 2 20 1 20 -12 2 -11 -15 -15 -16 -15 -4 -1 8
-3 23 -5 32 -3 14 0 16 15 8 13 -7 21 -7 25 0 4 6 11 7 17 4 7 -4 8 -2 4 5 -6
8 -11 9 -20 2 -9 -8 -17 -6 -29 7 -14 15 -14 21 -3 42 7 14 18 24 24 23 7 -2
12 2 12 7 0 12 -6 13 -29 1 -13 -7 -18 -6 -18 4 0 8 3 14 6 13 21 -2 22 4 5
18 -19 15 -18 15 3 11 13 -3 27 2 35 12 11 14 11 14 -2 4 -24 -18 -37 -2 -41
49 -2 25 -1 44 4 41 9 -5 9 11 0 21 -10 9 -11 86 -1 80 11 -7 10 4 -3 28 -8
15 -8 19 0 14 13 -9 14 -4 2 27 -7 18 -5 26 9 35 18 11 21 34 7 48 -3 4 -5 -3
-2 -14 2 -11 -2 -22 -8 -25 -8 -3 -12 8 -12 33 0 21 3 36 8 33 4 -2 7 0 7 6 0
5 -4 12 -9 16 -6 3 -6 17 1 36 10 29 11 30 32 12 l21 -18 -19 22 c-12 15 -23
20 -30 14 -8 -7 -11 4 -11 34 0 24 3 41 8 38 4 -2 7 0 7 6 0 5 -4 12 -9 16 -6
3 -6 17 1 36 9 26 12 28 27 17 14 -12 15 -11 2 5 -11 14 -16 15 -29 5 -13 -11
-14 -10 -5 7 6 11 7 29 3 40 -5 14 -2 24 11 33 15 10 17 17 9 33 -6 11 -14 18
-18 15 -4 -2 -7 13 -7 34 -1 35 1 38 19 28 18 -10 18 -12 3 -23 -15 -11 -16
-14 -2 -25 9 -7 18 -10 22 -6 3 3 1 6 -5 6 -7 0 -12 5 -12 11 0 5 4 8 9 5 5
-4 8 2 6 11 -1 10 2 25 8 33 9 12 9 13 -3 3 -11 -10 -17 -10 -31 3 -17 15 -15
59 2 48 5 -3 6 2 3 10 -4 11 0 14 15 11 11 -2 23 0 25 4 7 10 -35 8 -51 -2
-20 -13 -15 0 8 22 17 16 18 19 4 18 -14 -2 -17 9 -18 60 -1 33 1 59 6 56 9
-5 9 11 0 21 -10 9 -11 86 -1 80 11 -7 10 4 -3 28 -8 15 -8 19 0 14 13 -9 14
-4 2 27 -7 18 -5 26 9 35 18 11 21 34 7 48 -3 4 -5 -3 -2 -14 2 -11 -2 -22 -8
-25 -8 -3 -12 8 -12 33 0 21 3 36 8 33 4 -2 7 0 7 6 0 5 -4 12 -9 16 -6 3 -6
17 1 36 10 29 11 30 32 12 l21 -18 -19 22 c-12 15 -23 20 -30 14 -8 -7 -11 4
-11 34 0 24 3 41 8 38 4 -2 7 0 7 6 0 5 -4 12 -9 16 -6 3 -6 17 1 36 9 26 12
28 27 17 14 -12 15 -11 2 5 -11 14 -16 15 -29 5 -13 -11 -14 -10 -5 7 6 11 7
29 3 40 -5 14 -2 24 11 33 15 10 17 17 9 33 -6 11 -14 18 -18 15 -4 -2 -7 13
-7 34 -1 35 1 38 19 28 18 -10 18 -12 3 -23 -15 -11 -16 -14 -2 -25 9 -7 18
-10 22 -6 3 3 1 6 -5 6 -7 0 -12 5 -12 11 0 5 4 8 9 5 5 -4 8 2 6 11 -1 10 2
25 8 33 9 12 9 13 -3 3 -11 -10 -17 -10 -31 3 -17 15 -15 59 2 48 5 -3 6 2 3
10 -4 11 0 14 15 11 11 -2 23 0 25 4 7 10 -35 8 -51 -2 -20 -13 -15 0 8 22 17
16 18 19 4 18 -14 -2 -17 9 -18 60 -1 33 1 59 6 56 9 -5 9 11 0 21 -10 9 -11
86 -1 80 11 -7 10 4 -3 28 -8 15 -8 19 0 14 13 -9 14 -4 2 27 -7 18 -5 26 10
35 10 7 19 17 19 23 0 6 -7 3 -16 -5 -8 -9 -18 -16 -22 -16 -3 0 -1 5 5 11 8
8 8 20 3 34 -6 17 -5 25 5 29 7 2 19 15 26 28 l11 23 -21 -22 c-26 -27 -28
-28 -28 -9 0 8 11 20 23 27 19 10 21 14 9 25 -18 18 -31 18 -16 0 9 -10 8 -15
-1 -19 -8 -3 -14 5 -14 19 -1 13 2 24 7 24 4 0 5 7 2 17 -5 12 -3 14 8 8 11
-7 12 -6 2 6 -14 18 -20 79 -9 97 4 7 2 12 -5 12 -7 0 -4 7 7 16 10 8 14 13 7
10 -7 -4 -12 11 -15 48 -1 30 0 52 5 49 9 -5 9 11 0 21 -10 9 -11 86 -1 80 11
-7 10 4 -3 28 -8 15 -8 19 0 14 13 -9 14 -4 2 27 -7 18 -5 26 9 35 18 11 21
34 7 48 -3 4 -5 -3 -2 -14 2 -11 -2 -22 -8 -25 -8 -3 -12 8 -12 33 0 21 3 36
8 33 4 -2 7 0 7 6 0 5 -4 12 -9 16 -6 3 -6 17 1 36 10 29 11 30 32 12 l21 -18
-19 22 c-12 15 -23 20 -30 14 -8 -7 -11 4 -11 34 0 24 3 41 8 38 4 -2 7 0 7 6
0 5 -4 12 -9 16 -6 3 -6 17 1 36 9 26 12 28 27 17 14 -12 15 -11 2 5 -11 14
-16 15 -29 5 -13 -11 -14 -10 -5 7 6 11 7 29 3 40 -5 14 -2 24 11 33 15 10 17
17 9 33 -6 11 -14 18 -18 15 -4 -2 -7 13 -7 34 -1 35 1 38 19 28 18 -10 18
-12 3 -23 -15 -11 -16 -14 -2 -25 9 -7 18 -10 22 -6 3 3 1 6 -5 6 -7 0 -12 5
-12 11 0 5 4 8 9 5 5 -4 8 2 6 11 -1 10 2 25 8 33 9 12 9 13 -3 3 -11 -10 -17
-10 -31 3 -17 15 -15 59 2 48 5 -3 6 2 3 10 -4 11 0 14 15 11 11 -2 23 0 25 4
7 10 -35 8 -51 -2 -20 -13 -15 0 8 22 17 16 18 19 4 18 -14 -2 -17 9 -18 60
-1 33 1 59 6 56 9 -5 9 11 0 21 -10 9 -11 86 -1 80 11 -7 10 4 -3 28 -8 15 -8
19 0 14 13 -9 14 -4 2 27 -7 18 -5 26 9 35 18 11 21 34 7 48 -3 4 -5 -3 -2
-14 2 -11 -2 -22 -8 -25 -8 -3 -12 8 -12 33 0 21 3 36 8 33 4 -2 7 0 7 6 0 5
-4 12 -9 16 -6 3 -6 17 1 36 10 29 11 30 32 12 l21 -18 -19 22 c-12 15 -23 20
-30 14 -8 -7 -11 4 -11 34 0 24 3 41 8 38 4 -2 7 0 7 6 0 5 -4 12 -9 16 -6 3
-6 17 1 36 9 26 12 28 27 17 14 -12 15 -11 2 5 -11 14 -16 15 -29 5 -13 -11
-14 -10 -5 7 6 11 7 29 3 40 -5 14 -2 24 11 33 15 10 17 17 9 33 -6 11 -14 18
-18 15 -4 -2 -7 13 -7 34 -1 35 1 38 19 28 18 -10 18 -12 3 -23 -15 -11 -16
-14 -2 -25 9 -7 18 -10 22 -6 3 3 1 6 -5 6 -7 0 -12 5 -12 11 0 5 4 8 9 5 5
-4 8 2 6 11 -1 10 2 25 8 33 9 12 9 13 -3 3 -11 -10 -17 -10 -31 3 -17 15 -15
59 2 48 5 -3 6 2 3 10 -4 11 0 14 15 11 11 -2 23 0 25 4 7 10 -35 8 -51 -2
-20 -13 -15 0 8 22 17 16 18 19 4 18 -14 -2 -17 9 -18 60 -1 33 1 59 6 56 9
-5 9 11 0 21 -10 9 -11 86 -1 80 11 -7 10 4 -3 28 -8 15 -8 19 0 14 14 -9 14
-4 1 28 -5 15 -6 26 0 26 4 0 11 -8 14 -17 2 -10 4 -7 3 7 -2 14 -7 24 -13 23
-6 -1 -11 5 -11 13 0 17 9 18 26 2 11 -11 11 -9 2 10 -7 12 -15 21 -19 18 -4
-2 -7 9 -7 25 -1 22 3 28 15 24 11 -4 11 -2 -2 8 -10 8 -15 16 -13 19 3 3 -1
11 -10 18 -8 7 -15 20 -15 29 0 9 -13 25 -29 36 -16 10 -28 22 -26 25 6 10
-11 10 -840 13 -445 1 -815 6 -822 10 -6 4 -14 3 -17 -1 -3 -5 -15 -8 -28 -6
-13 1 -27 3 -32 3 -4 1 -6 7 -3 15 3 7 1 18 -4 23 -11 11 -1 45 11 38 5 -3 12
0 16 6 4 8 3 9 -4 5 -7 -4 -12 -2 -12 4 0 6 -5 8 -11 4 -8 -4 -8 0 0 15 7 11
14 21 17 21 3 0 3 -4 -1 -9 -9 -15 15 -25 28 -12 9 9 7 10 -7 5 -13 -5 -17 -4
-12 4 3 6 -3 16 -14 22 -19 10 -19 12 -3 38 17 26 17 27 -1 12 -19 -15 -19
-14 -1 20 12 24 14 31 4 23 -11 -9 -14 -7 -14 12 0 18 3 21 13 12 9 -7 12 -7
10 1 -2 6 6 18 17 26 19 15 19 16 1 9 -14 -5 -17 -3 -11 7 5 9 4 11 -4 6 -6
-4 -9 -12 -6 -17 4 -5 1 -9 -4 -9 -10 0 -13 11 -13 45 0 34 2 37 19 24 15 -13
15 -12 3 8 -8 12 -18 19 -24 16 -5 -3 -6 -1 -2 5 13 22 16 56 5 63 -8 4 -4 14
11 29 21 21 21 22 2 16 -15 -5 -20 -3 -18 8 1 9 6 19 11 23 4 4 5 3 2 -3 -3
-6 0 -11 7 -11 11 0 12 4 3 18 -6 10 -15 15 -21 12 -5 -3 -6 -1 -2 6 11 17 17
73 7 67 -4 -3 -7 3 -6 12 0 9 5 17 10 17 6 0 9 -6 8 -13 0 -7 2 -10 5 -7 10
10 9 55 0 49 -4 -3 -13 -2 -18 1 -11 7 5 45 22 56 5 3 2 9 -7 12 -9 4 -13 3
-10 -3 3 -6 1 -10 -4 -10 -15 0 -14 13 5 36 8 10 13 14 10 7 -9 -17 13 -28 27
-14 9 9 7 10 -7 5 -13 -5 -17 -4 -12 4 3 6 -3 16 -14 22 -19 10 -19 12 -3 38
17 26 17 27 -1 12 -19 -15 -19 -14 -1 20 12 24 14 31 4 23 -11 -9 -14 -7 -14
12 0 18 3 21 13 12 9 -7 12 -7 10 1 -2 6 6 18 17 26 19 15 19 16 1 9 -14 -5
-17 -3 -11 7 5 9 4 11 -4 6 -6 -4 -9 -12 -6 -17 4 -5 1 -9 -4 -9 -10 0 -13 11
-13 45 0 34 2 37 19 24 15 -13 15 -12 3 8 -8 12 -18 19 -23 16 -5 -3 -5 3 1
13 10 20 10 53 0 69 -3 6 5 11 18 11 14 1 21 -2 17 -9 -3 -6 -1 -7 6 -3 13 9
5 27 -12 25 -24 -3 -34 1 -34 16 0 8 3 12 7 10 3 -2 12 0 20 6 13 7 12 9 -1 9
-19 0 -32 37 -17 47 7 4 8 1 3 -7 -5 -8 -4 -11 3 -6 6 4 9 13 6 20 -3 7 2 19
11 26 8 7 15 17 15 22 0 5 -12 -4 -26 -19 l-26 -28 16 27 c10 17 12 29 6 33
-6 4 -8 11 -5 16 4 5 1 9 -6 9 -7 0 -6 8 5 25 15 23 15 24 -1 18 -16 -6 -16
-5 -4 11 10 11 11 20 4 24 -10 7 -28 60 -24 75 1 5 -3 6 -9 2 -5 -3 -13 0 -16
9 -3 8 -24 23 -47 34 -40 19 -68 20 -702 20 -363 0 -692 1 -730 3 l-70 2 -1
59 c0 57 1 59 23 55 29 -5 30 1 1 12 -19 7 -23 16 -24 60 0 48 7 63 21 41 3
-5 1 -10 -6 -10 -7 0 -10 -3 -6 -6 3 -3 11 -3 17 1 8 5 6 13 -7 27 -12 14 -18
36 -18 79 0 32 3 59 8 59 4 0 5 6 1 12 -9 14 -13 227 -5 226 19 -2 31 3 31 13
0 8 -4 8 -14 0 -10 -8 -16 -9 -21 -1 -3 5 -1 10 4 10 6 0 11 5 11 11 0 5 -4 8
-8 5 -5 -3 -9 1 -9 9 0 8 6 15 14 15 7 0 13 -5 13 -12 0 -6 3 -8 7 -4 5 4 -1
14 -11 22 -22 15 -32 54 -15 54 5 0 8 -4 5 -9 -7 -11 21 -9 29 2 3 4 2 5 -1 2
-4 -2 -14 3 -22 12 -13 12 -17 37 -17 104 -1 48 1 87 4 87 19 -2 31 3 31 13 0
8 -4 8 -14 0 -10 -8 -16 -9 -21 -1 -3 5 -1 10 4 10 6 0 11 5 11 11 0 5 -4 8
-8 5 -5 -3 -9 1 -9 9 0 8 6 15 14 15 7 0 13 -5 13 -12 0 -6 3 -8 7 -4 5 4 -1
14 -11 22 -22 15 -32 54 -15 54 5 0 8 -4 5 -9 -7 -11 21 -9 29 2 3 4 2 5 -1 2
-4 -2 -14 3 -22 12 -21 21 -25 116 -5 109 7 -3 13 -1 13 3 0 5 -6 11 -14 14
-8 3 -12 19 -11 44 1 21 -2 48 -7 61 -6 17 -5 21 5 16 8 -5 8 -2 -2 9 -7 9
-10 17 -5 17 4 0 -1 7 -12 15 -10 8 -15 15 -10 15 6 0 -10 15 -34 33 l-44 32
-4415 1 -4414 1 -41 -22z m12418 -3724 c3 -5 0 -11 -7 -14 -8 -3 -14 1 -14 9
0 16 13 19 21 5z m0 -960 c3 -5 0 -11 -7 -14 -8 -3 -14 1 -14 9 0 16 13 19 21
5z m0 -1600 c3 -5 0 -11 -7 -14 -8 -3 -14 1 -14 9 0 16 13 19 21 5z m0 -960
c3 -5 0 -11 -7 -14 -8 -3 -14 1 -14 9 0 16 13 19 21 5z m0 -960 c3 -5 0 -11
-7 -14 -8 -3 -14 1 -14 9 0 16 13 19 21 5z"/>
<path d="M9196 10658 c3 -5 10 -6 15 -3 13 9 11 12 -6 12 -8 0 -12 -4 -9 -9z"/>
<path d="M9229 10623 c-13 -16 -12 -17 4 -4 9 7 17 15 17 17 0 8 -8 3 -21 -13z"/>
<path d="M9196 10603 c-6 -14 -5 -15 5 -6 7 7 10 15 7 18 -3 3 -9 -2 -12 -12z"/>
<path d="M9210 10578 c0 -4 4 -8 9 -8 6 0 12 4 15 8 3 5 -1 9 -9 9 -8 0 -15
-4 -15 -9z"/>
<path d="M9200 10523 c5 -2 8 -8 6 -12 -3 -4 -7 -19 -9 -32 -4 -19 0 -25 14
-26 10 -1 19 2 19 8 0 5 -6 8 -12 7 -7 -2 -12 2 -11 7 0 6 3 19 5 29 1 10 -3
20 -10 22 -7 1 -8 0 -2 -3z"/>
<path d="M9198 10393 c7 -3 16 -2 19 1 4 3 -2 6 -13 5 -11 0 -14 -3 -6 -6z"/>
<path d="M9235 10320 c3 -5 8 -10 11 -10 2 0 4 5 4 10 0 6 -5 10 -11 10 -5 0
-7 -4 -4 -10z"/>
<path d="M9195 10280 c-3 -6 1 -7 9 -4 18 7 21 14 7 14 -6 0 -13 -4 -16 -10z"/>
<path d="M9199 10253 c-8 -9 -8 -13 0 -13 6 0 11 5 11 11 0 5 4 8 9 4 5 -3 12
-2 15 3 9 14 -23 10 -35 -5z"/>
<path d="M9200 10220 c-9 -6 -10 -10 -3 -10 6 0 15 5 18 10 8 12 4 12 -15 0z"/>
<path d="M9195 10167 c0 -25 4 -33 17 -34 10 -1 18 2 18 8 0 5 -6 8 -12 7 -8
-2 -12 7 -10 25 2 15 0 27 -5 27 -4 0 -8 -15 -8 -33z"/>
<path d="M9198 10073 c7 -3 16 -2 19 1 4 3 -2 6 -13 5 -11 0 -14 -3 -6 -6z"/>
<path d="M9235 10000 c3 -5 8 -10 11 -10 2 0 4 5 4 10 0 6 -5 10 -11 10 -5 0
-7 -4 -4 -10z"/>
<path d="M9195 9960 c-3 -6 1 -7 9 -4 18 7 21 14 7 14 -6 0 -13 -4 -16 -10z"/>
<path d="M9199 9933 c-8 -9 -8 -13 0 -13 6 0 11 5 11 11 0 5 4 8 9 4 5 -3 12
-2 15 3 9 14 -23 10 -35 -5z"/>
<path d="M9200 9900 c-9 -6 -10 -10 -3 -10 6 0 15 5 18 10 8 12 4 12 -15 0z"/>
<path d="M9195 9863 c0 -10 6 -26 12 -37 9 -16 11 -17 16 -2 4 10 3 14 -2 11
-5 -3 -12 -1 -16 5 -3 5 -2 10 4 10 6 0 8 7 5 15 -8 21 -21 19 -19 -2z"/>
<path d="M9198 9793 c7 -3 16 -2 19 1 4 3 -2 6 -13 5 -11 0 -14 -3 -6 -6z"/>
<path d="M9202 9766 c7 -8 15 -12 17 -11 5 6 -10 25 -20 25 -5 0 -4 -6 3 -14z"/>
<path d="M9199 9738 c-6 -21 -5 -37 2 -32 5 3 6 10 3 16 -5 8 -1 9 10 5 10 -4
15 -3 11 3 -5 9 -24 14 -26 8z"/>
<path d="M9197 9683 c-3 -5 3 -14 13 -21 14 -9 21 -9 26 0 4 6 3 8 -4 4 -6 -3
-15 1 -20 10 -5 9 -12 12 -15 7z"/>
<path d="M9193 9645 c0 -8 4 -15 9 -15 4 0 8 4 8 9 0 6 -4 12 -8 15 -5 3 -9
-1 -9 -9z"/>
<path d="M9220 9625 c0 -2 6 -8 13 -14 10 -8 14 -7 14 2 0 8 -6 14 -14 14 -7
0 -13 -1 -13 -2z"/>
<path d="M9197 9544 c-3 -5 1 -15 9 -22 16 -14 18 -5 5 17 -5 7 -11 9 -14 5z"/>
<path d="M9195 9470 c-3 -5 2 -21 11 -35 18 -28 26 -33 18 -10 -5 11 -2 14 12
9 11 -4 16 -4 12 0 -3 4 -14 9 -25 10 -10 2 -17 11 -17 20 2 18 -2 21 -11 6z"/>
<path d="M9196 9401 c-3 -5 1 -11 9 -14 9 -4 12 -1 8 9 -6 16 -10 17 -17 5z"/>
<path d="M10770 9286 c0 -2 7 -7 16 -10 8 -3 12 -2 9 4 -6 10 -25 14 -25 6z"/>
<path d="M10790 9163 c0 -5 5 -15 10 -23 7 -12 9 -10 7 8 -1 19 -17 33 -17 15z"/>
<path d="M10798 9023 c7 -3 16 -2 19 1 4 3 -2 6 -13 5 -11 0 -14 -3 -6 -6z"/>
<path d="M10795 8920 c-3 -5 -1 -10 4 -10 6 0 11 5 11 10 0 6 -2 10 -4 10 -3
0 -8 -4 -11 -10z"/>
<path d="M10820 8906 c0 -2 8 -10 18 -17 15 -13 16 -12 3 4 -13 16 -21 21 -21
13z"/>
<path d="M10795 8880 c3 -5 8 -10 11 -10 2 0 4 5 4 10 0 6 -5 10 -11 10 -5 0
-7 -4 -4 -10z"/>
<path d="M10816 8862 c-2 -4 -1 -14 4 -22 7 -11 9 -9 7 8 -1 24 -3 26 -11 14z"/>
<path d="M10783 8815 c0 -7 6 -11 14 -8 7 3 13 6 13 8 0 2 -6 5 -13 8 -8 3
-14 -1 -14 -8z"/>
<path d="M10806 8697 c3 -10 9 -15 12 -12 3 3 0 11 -7 18 -10 9 -11 8 -5 -6z"/>
<path d="M10815 8560 c-3 -5 -1 -10 4 -10 6 0 11 5 11 10 0 6 -2 10 -4 10 -3
0 -8 -4 -11 -10z"/>
<path d="M10795 8440 c-3 -5 -1 -10 4 -10 6 0 11 5 11 10 0 6 -2 10 -4 10 -3
0 -8 -4 -11 -10z"/>
<path d="M10795 8400 c3 -5 8 -10 11 -10 2 0 4 5 4 10 0 6 -5 10 -11 10 -5 0
-7 -4 -4 -10z"/>
<path d="M10815 8380 c-3 -5 -1 -10 4 -10 6 0 11 5 11 10 0 6 -2 10 -4 10 -3
0 -8 -4 -11 -10z"/>
<path d="M10816 8322 c-2 -4 -1 -14 4 -22 7 -11 9 -9 7 8 -1 24 -3 26 -11 14z"/>
<path d="M10790 8300 c0 -5 5 -10 11 -10 5 0 7 5 4 10 -3 6 -8 10 -11 10 -2 0
-4 -4 -4 -10z"/>
<path d="M10830 8261 c0 -6 4 -13 10 -16 6 -3 7 1 4 9 -7 18 -14 21 -14 7z"/>
<path d="M10795 8240 c3 -5 8 -10 11 -10 2 0 4 5 4 10 0 6 -5 10 -11 10 -5 0
-7 -4 -4 -10z"/>
<path d="M10816 8222 c-2 -4 -1 -14 4 -22 7 -11 9 -9 7 8 -1 24 -3 26 -11 14z"/>
<path d="M10783 8175 c0 -7 6 -11 14 -8 7 3 13 6 13 8 0 2 -6 5 -13 8 -8 3
-14 -1 -14 -8z"/>
<path d="M10806 8057 c3 -10 9 -15 12 -12 3 3 0 11 -7 18 -10 9 -11 8 -5 -6z"/>
<path d="M10815 7910 c6 -10 3 -12 -13 -8 -12 4 -22 2 -22 -3 0 -12 37 -12 45
0 3 5 0 13 -6 17 -8 5 -9 3 -4 -6z"/>
<path d="M10810 7870 c-8 -5 -12 -12 -9 -15 4 -3 12 1 19 10 14 17 11 19 -10
5z"/>
<path d="M12610 7676 c0 -2 7 -9 15 -16 13 -11 14 -10 9 4 -5 14 -24 23 -24
12z"/>
<path d="M12653 7655 c0 -8 4 -12 9 -9 5 3 6 10 3 15 -9 13 -12 11 -12 -6z"/>
<path d="M12656 7613 c-6 -14 -5 -15 5 -6 7 7 10 15 7 18 -3 3 -9 -2 -12 -12z"/>
<path d="M12653 7575 c0 -8 4 -12 9 -9 5 3 6 10 3 15 -9 13 -12 11 -12 -6z"/>
<path d="M12620 7525 c0 -2 6 -8 13 -14 10 -8 14 -7 14 2 0 8 -6 14 -14 14 -7
0 -13 -1 -13 -2z"/>
<path d="M12625 7482 c-13 -9 -18 -35 -5 -27 5 3 10 2 10 -3 0 -6 7 -13 16
-16 13 -5 14 -4 6 7 -7 8 -8 18 -4 22 4 5 1 5 -5 1 -7 -4 -13 -3 -13 3 0 5 6
12 13 14 6 3 8 6 2 6 -5 0 -14 -3 -20 -7z"/>
<path d="M12615 7420 c3 -5 8 -10 11 -10 2 0 4 5 4 10 0 6 -5 10 -11 10 -5 0
-7 -4 -4 -10z"/>
<path d="M12623 7348 c-2 -16 0 -17 13 -3 9 8 21 12 27 8 7 -3 9 -2 4 2 -14
16 -43 12 -44 -7z"/>
<path d="M12615 7190 c-4 -6 1 -7 11 -3 13 5 15 3 9 -7 -5 -9 -4 -11 4 -6 6 4
9 12 6 17 -8 12 -22 12 -30 -1z"/>
<path d="M12653 7025 c0 -8 4 -12 9 -9 5 3 6 10 3 15 -9 13 -12 11 -12 -6z"/>
<path d="M12625 7019 c-4 -6 -5 -12 -2 -15 2 -3 7 2 10 11 7 17 1 20 -8 4z"/>
<path d="M12653 6985 c0 -8 4 -12 9 -9 5 3 6 10 3 15 -9 13 -12 11 -12 -6z"/>
<path d="M12627 6930 c7 -8 20 -15 29 -16 9 -1 13 1 9 4 -4 4 -10 7 -13 7 -4
0 -14 4 -22 9 -12 7 -13 6 -3 -4z"/>
<path d="M12615 6900 c3 -5 8 -10 11 -10 2 0 4 5 4 10 0 6 -5 10 -11 10 -5 0
-7 -4 -4 -10z"/>
<path d="M12631 6873 c-1 -17 16 -25 25 -12 4 7 3 9 -4 5 -5 -3 -13 0 -15 6
-4 9 -6 10 -6 1z"/>
<path d="M12623 6835 c0 -7 6 -11 14 -8 7 3 13 6 13 8 0 2 -6 5 -13 8 -8 3
-14 -1 -14 -8z"/>
<path d="M12620 6776 c0 -2 8 -10 18 -17 15 -13 16 -12 3 4 -13 16 -21 21 -21
13z"/>
<path d="M12615 6740 c3 -5 8 -10 11 -10 2 0 4 5 4 10 0 6 -5 10 -11 10 -5 0
-7 -4 -4 -10z"/>
<path d="M12634 6719 c-3 -6 -1 -16 5 -22 9 -9 10 -7 5 7 -6 15 -4 17 6 11 9
-5 11 -4 6 3 -9 15 -13 15 -22 1z"/>
<path d="M12625 6619 c-4 -6 -5 -12 -2 -15 2 -3 7 2 10 11 7 17 1 20 -8 4z"/>
<path d="M12653 6615 c0 -8 4 -12 9 -9 5 3 6 10 3 15 -9 13 -12 11 -12 -6z"/>
<path d="M12630 6561 c0 -6 4 -12 8 -15 5 -3 9 1 9 9 0 8 -4 15 -9 15 -4 0 -8
-4 -8 -9z"/>
<path d="M12625 6522 c-13 -9 -18 -35 -5 -27 5 3 10 2 10 -3 0 -6 7 -13 16
-16 13 -5 14 -4 6 7 -7 8 -8 18 -4 22 4 5 1 5 -5 1 -7 -4 -13 -3 -13 3 0 5 6
12 13 14 6 3 8 6 2 6 -5 0 -14 -3 -20 -7z"/>
<path d="M12615 6460 c3 -5 8 -10 11 -10 2 0 4 5 4 10 0 6 -5 10 -11 10 -5 0
-7 -4 -4 -10z"/>
<path d="M12623 6388 c-2 -16 0 -17 13 -3 9 8 21 12 27 8 7 -3 9 -2 4 2 -14
16 -43 12 -44 -7z"/>
<path d="M12615 6230 c-4 -6 1 -7 11 -3 13 5 15 3 9 -7 -5 -9 -4 -11 4 -6 6 4
9 12 6 17 -8 12 -22 12 -30 -1z"/>
<path d="M12653 6065 c0 -8 4 -12 9 -9 5 3 6 10 3 15 -9 13 -12 11 -12 -6z"/>
<path d="M12625 6059 c-4 -6 -5 -12 -2 -15 2 -3 7 2 10 11 7 17 1 20 -8 4z"/>
<path d="M12653 6025 c0 -8 4 -12 9 -9 5 3 6 10 3 15 -9 13 -12 11 -12 -6z"/>
<path d="M12627 5970 c7 -8 20 -15 29 -16 9 -1 13 1 9 4 -4 4 -10 7 -13 7 -4
0 -14 4 -22 9 -12 7 -13 6 -3 -4z"/>
<path d="M12615 5940 c3 -5 8 -10 11 -10 2 0 4 5 4 10 0 6 -5 10 -11 10 -5 0
-7 -4 -4 -10z"/>
<path d="M12631 5913 c-1 -17 16 -25 25 -12 4 7 3 9 -4 5 -5 -3 -13 0 -15 6
-4 9 -6 10 -6 1z"/>
<path d="M12623 5875 c0 -7 6 -11 14 -8 7 3 13 6 13 8 0 2 -6 5 -13 8 -8 3
-14 -1 -14 -8z"/>
<path d="M12620 5816 c0 -2 8 -10 18 -17 15 -13 16 -12 3 4 -13 16 -21 21 -21
13z"/>
<path d="M12615 5780 c3 -5 8 -10 11 -10 2 0 4 5 4 10 0 6 -5 10 -11 10 -5 0
-7 -4 -4 -10z"/>
<path d="M12634 5759 c-3 -6 -1 -16 5 -22 9 -9 10 -7 5 7 -6 15 -4 17 6 11 9
-5 11 -4 6 3 -9 15 -13 15 -22 1z"/>
<path d="M12625 5659 c-4 -6 -5 -12 -2 -15 2 -3 7 2 10 11 7 17 1 20 -8 4z"/>
<path d="M12653 5655 c0 -8 4 -12 9 -9 5 3 6 10 3 15 -9 13 -12 11 -12 -6z"/>
<path d="M12630 5601 c0 -6 4 -12 8 -15 5 -3 9 1 9 9 0 8 -4 15 -9 15 -4 0 -8
-4 -8 -9z"/>
<path d="M12625 5562 c-13 -9 -18 -35 -5 -27 5 3 10 2 10 -3 0 -6 7 -13 16
-16 13 -5 14 -4 6 7 -7 8 -8 18 -4 22 4 5 1 5 -5 1 -7 -4 -13 -3 -13 3 0 5 6
12 13 14 6 3 8 6 2 6 -5 0 -14 -3 -20 -7z"/>
<path d="M12615 5500 c3 -5 8 -10 11 -10 2 0 4 5 4 10 0 6 -5 10 -11 10 -5 0
-7 -4 -4 -10z"/>
<path d="M12623 5428 c-2 -16 0 -17 13 -3 9 8 21 12 27 8 7 -3 9 -2 4 2 -14
16 -43 12 -44 -7z"/>
<path d="M12630 5349 c0 -5 5 -7 10 -4 6 3 10 8 10 11 0 2 -4 4 -10 4 -5 0
-10 -5 -10 -11z"/>
<path d="M12615 5320 c-2 -3 0 -12 4 -19 6 -10 10 -9 15 4 3 9 10 14 15 10 5
-3 12 -2 15 3 2 4 -7 8 -20 8 -14 0 -27 -3 -29 -6z"/>
<path d="M12628 5272 c8 -5 13 -13 12 -18 -1 -5 4 -10 12 -12 11 -3 11 -2 0 6
-8 5 -13 13 -12 18 1 5 -4 10 -12 12 -11 3 -11 2 0 -6z"/>
<path d="M12635 5220 c-3 -5 -1 -10 4 -10 6 0 11 5 11 10 0 6 -2 10 -4 10 -3
0 -8 -4 -11 -10z"/>
<path d="M12653 5105 c0 -8 4 -12 9 -9 5 3 6 10 3 15 -9 13 -12 11 -12 -6z"/>
<path d="M12625 5099 c-4 -6 -5 -12 -2 -15 2 -3 7 2 10 11 7 17 1 20 -8 4z"/>
<path d="M12654 5060 c0 -13 4 -16 10 -10 7 7 7 13 0 20 -6 6 -10 3 -10 -10z"/>
<path d="M12625 5019 c-4 -6 -5 -12 -2 -15 2 -3 7 2 10 11 7 17 1 20 -8 4z"/>
<path d="M12653 5015 c0 -8 4 -12 9 -9 5 3 6 10 3 15 -9 13 -12 11 -12 -6z"/>
<path d="M12630 4961 c0 -6 4 -12 8 -15 5 -3 9 1 9 9 0 8 -4 15 -9 15 -4 0 -8
-4 -8 -9z"/>
<path d="M12625 4922 c-13 -9 -18 -35 -5 -27 5 3 10 2 10 -3 0 -6 7 -13 16
-16 13 -5 14 -4 6 7 -7 8 -8 18 -4 22 4 5 1 5 -5 1 -7 -4 -13 -3 -13 3 0 5 6
12 13 14 6 3 8 6 2 6 -5 0 -14 -3 -20 -7z"/>
<path d="M215 4869 c-4 -6 -5 -12 -2 -15 2 -3 7 2 10 11 7 17 1 20 -8 4z"/>
<path d="M1646 4872 c-3 -5 -21 -8 -40 -7 -28 2 -34 0 -29 -14 3 -12 1 -11
-11 3 -9 11 -16 15 -16 9 0 -6 7 -16 15 -23 12 -10 16 -9 21 4 3 9 10 16 16
16 5 0 6 -6 2 -12 -5 -10 -4 -10 6 -1 10 9 19 8 39 -4 20 -11 22 -12 9 -1 -10
8 -15 18 -11 22 3 3 14 -1 23 -9 16 -14 18 -14 24 0 3 10 2 14 -5 10 -5 -4
-16 -2 -24 5 -7 6 -16 7 -19 2z"/>
<path d="M370 4855 c0 -8 2 -15 4 -15 2 0 6 7 10 15 3 8 1 15 -4 15 -6 0 -10
-7 -10 -15z"/>
<path d="M400 4855 c-11 -13 -10 -14 4 -9 9 3 16 10 16 15 0 13 -6 11 -20 -6z"/>
<path d="M450 4855 c0 -8 2 -15 4 -15 2 0 6 7 10 15 3 8 1 15 -4 15 -6 0 -10
-7 -10 -15z"/>
<path d="M490 4861 c0 -6 4 -13 10 -16 6 -3 7 1 4 9 -7 18 -14 21 -14 7z"/>
<path d="M544 4848 c0 -11 4 -14 12 -8 6 6 13 8 16 5 2 -3 5 1 5 8 0 7 -8 13
-17 13 -8 0 -16 -8 -16 -18z"/>
<path d="M676 4858 c3 -5 10 -6 15 -3 13 9 11 12 -6 12 -8 0 -12 -4 -9 -9z"/>
<path d="M740 4855 c-7 -9 -11 -17 -9 -20 3 -2 10 5 17 15 14 24 10 26 -8 5z"/>
<path d="M770 4861 c0 -6 4 -13 10 -16 6 -3 7 1 4 9 -7 18 -14 21 -14 7z"/>
<path d="M796 4858 c3 -4 9 -8 15 -8 5 0 9 4 9 8 0 5 -7 9 -15 9 -8 0 -12 -4
-9 -9z"/>
<path d="M842 4855 c-7 -8 -9 -15 -4 -15 5 0 15 7 22 15 16 19 -1 19 -18 0z"/>
<path d="M880 4855 c-11 -13 -10 -14 4 -9 9 3 16 10 16 15 0 13 -6 11 -20 -6z"/>
<path d="M922 4855 c-7 -8 -9 -15 -4 -15 5 0 15 7 22 15 16 19 -1 19 -18 0z"/>
<path d="M956 4853 c-6 -14 -5 -15 5 -6 7 7 10 15 7 18 -3 3 -9 -2 -12 -12z"/>
<path d="M987 4857 c-3 -8 1 -14 8 -14 7 0 11 6 8 14 -3 7 -6 13 -8 13 -2 0
-5 -6 -8 -13z"/>
<path d="M1060 4861 c0 -6 5 -11 11 -11 5 0 7 -6 3 -12 -5 -9 -2 -9 9 1 9 7
17 19 16 25 0 6 -3 6 -6 -2 -4 -10 -8 -10 -19 -1 -10 8 -14 8 -14 0z"/>
<path d="M1110 4860 c0 -5 5 -10 10 -10 6 0 10 5 10 10 0 6 -4 10 -10 10 -5 0
-10 -4 -10 -10z"/>
<path d="M1147 4857 c-3 -8 1 -14 8 -14 7 0 11 6 8 14 -3 7 -6 13 -8 13 -2 0
-5 -6 -8 -13z"/>
<path d="M1220 4861 c0 -6 5 -11 11 -11 5 0 7 -6 3 -12 -5 -9 -2 -9 9 1 9 7
17 19 16 25 0 6 -3 6 -6 -2 -4 -10 -8 -10 -19 -1 -10 8 -14 8 -14 0z"/>
<path d="M1270 4858 c0 -4 7 -8 15 -8 8 0 15 4 15 8 0 5 -7 9 -15 9 -8 0 -15
-4 -15 -9z"/>
<path d="M1330 4855 c0 -8 2 -15 4 -15 2 0 6 7 10 15 3 8 1 15 -4 15 -6 0 -10
-7 -10 -15z"/>
<path d="M1360 4855 c-11 -13 -10 -14 4 -9 9 3 16 10 16 15 0 13 -6 11 -20 -6z"/>
<path d="M1410 4855 c0 -8 2 -15 4 -15 2 0 6 7 10 15 3 8 1 15 -4 15 -6 0 -10
-7 -10 -15z"/>
<path d="M1450 4861 c0 -6 4 -13 10 -16 6 -3 7 1 4 9 -7 18 -14 21 -14 7z"/>
<path d="M1504 4848 c0 -11 4 -14 12 -8 6 6 13 8 16 5 2 -3 5 1 5 8 0 7 -8 13
-17 13 -8 0 -16 -8 -16 -18z"/>
<path d="M12615 4860 c3 -5 8 -10 11 -10 2 0 4 5 4 10 0 6 -5 10 -11 10 -5 0
-7 -4 -4 -10z"/>
<path d="M659 4848 c-5 -18 -6 -38 -1 -34 7 8 12 36 6 36 -2 0 -4 -1 -5 -2z"/>
<path d="M815 4820 c-3 -5 -1 -10 4 -10 6 0 11 5 11 10 0 6 -2 10 -4 10 -3 0
-8 -4 -11 -10z"/>
<path d="M12623 4788 c-2 -16 0 -17 13 -3 9 8 21 12 27 8 7 -3 9 -2 4 2 -14
16 -43 12 -44 -7z"/>
<path d="M12615 4630 c-4 -6 1 -7 11 -3 13 5 15 3 9 -7 -5 -9 -4 -11 4 -6 6 4
9 12 6 17 -8 12 -22 12 -30 -1z"/>
<path d="M12653 4465 c0 -8 4 -12 9 -9 5 3 6 10 3 15 -9 13 -12 11 -12 -6z"/>
<path d="M12625 4459 c-4 -6 -5 -12 -2 -15 2 -3 7 2 10 11 7 17 1 20 -8 4z"/>
<path d="M12653 4425 c0 -8 4 -12 9 -9 5 3 6 10 3 15 -9 13 -12 11 -12 -6z"/>
<path d="M12627 4370 c7 -8 20 -15 29 -16 9 -1 13 1 9 4 -4 4 -10 7 -13 7 -4
0 -14 4 -22 9 -12 7 -13 6 -3 -4z"/>
<path d="M12615 4340 c3 -5 8 -10 11 -10 2 0 4 5 4 10 0 6 -5 10 -11 10 -5 0
-7 -4 -4 -10z"/>
<path d="M12631 4313 c-1 -17 16 -25 25 -12 4 7 3 9 -4 5 -5 -3 -13 0 -15 6
-4 9 -6 10 -6 1z"/>
<path d="M12623 4275 c0 -7 6 -11 14 -8 7 3 13 6 13 8 0 2 -6 5 -13 8 -8 3
-14 -1 -14 -8z"/>
<path d="M12620 4216 c0 -2 8 -10 18 -17 15 -13 16 -12 3 4 -13 16 -21 21 -21
13z"/>
<path d="M12615 4180 c3 -5 8 -10 11 -10 2 0 4 5 4 10 0 6 -5 10 -11 10 -5 0
-7 -4 -4 -10z"/>
<path d="M12634 4159 c-3 -6 -1 -16 5 -22 9 -9 10 -7 5 7 -6 15 -4 17 6 11 9
-5 11 -4 6 3 -9 15 -13 15 -22 1z"/>
<path d="M12625 4059 c-4 -6 -5 -12 -2 -15 2 -3 7 2 10 11 7 17 1 20 -8 4z"/>
<path d="M12653 4055 c0 -8 4 -12 9 -9 5 3 6 10 3 15 -9 13 -12 11 -12 -6z"/>
<path d="M12630 4001 c0 -6 4 -12 8 -15 5 -3 9 1 9 9 0 8 -4 15 -9 15 -4 0 -8
-4 -8 -9z"/>
<path d="M12625 3962 c-13 -9 -18 -35 -5 -27 5 3 10 2 10 -3 0 -6 7 -13 16
-16 13 -5 14 -4 6 7 -7 8 -8 18 -4 22 4 5 1 5 -5 1 -7 -4 -13 -3 -13 3 0 5 6
12 13 14 6 3 8 6 2 6 -5 0 -14 -3 -20 -7z"/>
<path d="M12615 3900 c3 -5 8 -10 11 -10 2 0 4 5 4 10 0 6 -5 10 -11 10 -5 0
-7 -4 -4 -10z"/>
<path d="M12623 3828 c-2 -16 0 -17 13 -3 9 8 21 12 27 8 7 -3 9 -2 4 2 -14
16 -43 12 -44 -7z"/>
<path d="M12615 3670 c-4 -6 1 -7 11 -3 13 5 15 3 9 -7 -5 -9 -4 -11 4 -6 6 4
9 12 6 17 -8 12 -22 12 -30 -1z"/>
<path d="M12653 3505 c0 -8 4 -12 9 -9 5 3 6 10 3 15 -9 13 -12 11 -12 -6z"/>
<path d="M12625 3499 c-4 -6 -5 -12 -2 -15 2 -3 7 2 10 11 7 17 1 20 -8 4z"/>
<path d="M12653 3465 c0 -8 4 -12 9 -9 5 3 6 10 3 15 -9 13 -12 11 -12 -6z"/>
<path d="M1856 3413 c-6 -14 -5 -15 5 -6 7 7 10 15 7 18 -3 3 -9 -2 -12 -12z"/>
<path d="M1890 3416 c7 -7 13 -7 20 0 6 6 3 10 -10 10 -13 0 -16 -4 -10 -10z"/>
<path d="M1937 3413 c4 -10 2 -14 -5 -9 -6 3 -13 2 -16 -3 -4 -5 2 -8 11 -7
19 3 32 36 14 36 -6 0 -7 -7 -4 -17z"/>
<path d="M1970 3415 c0 -8 2 -15 4 -15 2 0 6 7 10 15 3 8 1 15 -4 15 -6 0 -10
-7 -10 -15z"/>
<path d="M2033 3417 c0 -7 9 -14 20 -14 11 -1 18 -1 16 0 -2 2 -11 8 -20 15
-12 9 -16 9 -16 -1z"/>
<path d="M2077 3419 c7 -7 15 -10 18 -7 3 3 -2 9 -12 12 -14 6 -15 5 -6 -5z"/>
<path d="M2140 3422 c0 -7 5 -12 11 -12 5 0 8 -4 5 -9 -4 -5 2 -8 11 -7 19 3
32 36 14 36 -6 0 -8 -8 -4 -17 6 -16 4 -16 -15 1 -12 11 -22 14 -22 8z"/>
<path d="M2205 3412 c-5 -13 -3 -14 6 -5 9 9 18 8 38 -4 20 -11 22 -12 9 -1
-10 8 -16 17 -13 19 2 3 -4 5 -15 6 -10 1 -21 -6 -25 -15z"/>
<path d="M2270 3423 c0 -6 7 -16 15 -23 12 -10 16 -9 21 3 4 10 14 14 32 11
15 -3 23 -2 20 2 -4 3 -20 8 -37 9 -23 2 -28 -1 -24 -14 3 -12 1 -11 -11 3 -9
11 -16 15 -16 9z"/>
<path d="M2370 3420 c0 -5 5 -10 11 -10 5 0 7 5 4 10 -3 6 -8 10 -11 10 -2 0
-4 -4 -4 -10z"/>
<path d="M2420 3415 c-7 -9 -11 -17 -9 -20 3 -2 10 5 17 15 14 24 10 26 -8 5z"/>
<path d="M2450 3421 c0 -6 4 -13 10 -16 6 -3 7 1 4 9 -7 18 -14 21 -14 7z"/>
<path d="M2490 3420 c0 -5 5 -10 10 -10 6 0 10 5 10 10 0 6 -4 10 -10 10 -5 0
-10 -4 -10 -10z"/>
<path d="M2630 3419 c0 -5 5 -7 10 -4 6 3 10 8 10 11 0 2 -4 4 -10 4 -5 0 -10
-5 -10 -11z"/>
<path d="M2659 3413 c-13 -16 -12 -17 4 -4 16 13 21 21 13 21 -2 0 -10 -8 -17
-17z"/>
<path d="M2690 3421 c0 -6 4 -13 10 -16 6 -3 7 1 4 9 -7 18 -14 21 -14 7z"/>
<path d="M2730 3420 c0 -5 5 -10 11 -10 5 0 7 5 4 10 -3 6 -8 10 -11 10 -2 0
-4 -4 -4 -10z"/>
<path d="M2765 3419 c3 -4 13 -6 23 -5 9 2 21 -2 25 -8 6 -7 7 -6 5 4 -3 8
-16 15 -31 15 -14 1 -24 -2 -22 -6z"/>
<path d="M2833 3415 c0 -8 4 -12 9 -9 5 3 6 10 3 15 -9 13 -12 11 -12 -6z"/>
<path d="M2896 3415 c4 -8 8 -15 10 -15 2 0 4 7 4 15 0 8 -4 15 -10 15 -5 0
-7 -7 -4 -15z"/>
<path d="M2930 3415 c0 -8 2 -15 4 -15 2 0 6 7 10 15 3 8 1 15 -4 15 -6 0 -10
-7 -10 -15z"/>
<path d="M2993 3417 c0 -7 9 -14 20 -14 11 -1 18 -1 16 0 -2 2 -11 8 -20 15
-12 9 -16 9 -16 -1z"/>
<path d="M3037 3419 c7 -7 15 -10 18 -7 3 3 -2 9 -12 12 -14 6 -15 5 -6 -5z"/>
<path d="M3100 3422 c0 -7 5 -12 11 -12 5 0 8 -4 5 -9 -4 -5 2 -8 11 -7 19 3
32 36 14 36 -6 0 -8 -8 -4 -17 6 -16 4 -16 -15 1 -12 11 -22 14 -22 8z"/>
<path d="M3166 3414 c-5 -13 -4 -14 7 -6 8 7 18 8 22 4 5 -4 5 -1 1 6 -10 17
-23 15 -30 -4z"/>
<path d="M3210 3417 c0 -5 6 -7 14 -4 8 3 16 1 19 -6 2 -7 6 -5 9 4 4 11 -1
15 -18 15 -13 0 -24 -4 -24 -9z"/>
<path d="M3310 3419 c0 -5 5 -7 10 -4 6 3 10 8 10 11 0 2 -4 4 -10 4 -5 0 -10
-5 -10 -11z"/>
<path d="M3466 3417 c3 -10 9 -15 12 -12 3 3 0 11 -7 18 -10 9 -11 8 -5 -6z"/>
<path d="M3490 3421 c0 -6 4 -13 10 -16 6 -3 7 1 4 9 -7 18 -14 21 -14 7z"/>
<path d="M1995 3410 c-3 -6 1 -7 9 -4 18 7 21 14 7 14 -6 0 -13 -4 -16 -10z"/>
<path d="M2955 3410 c-3 -6 1 -7 9 -4 18 7 21 14 7 14 -6 0 -13 -4 -16 -10z"/>
<path d="M3267 3407 c-3 -7 5 -12 19 -12 29 0 29 1 5 14 -14 8 -20 7 -24 -2z"/>
<path d="M3432 3411 c-11 -6 -9 -9 6 -13 15 -4 19 -2 15 8 -6 16 -4 16 -21 5z"/>
<path d="M12627 3410 c7 -8 20 -15 29 -16 9 -1 13 1 9 4 -4 4 -10 7 -13 7 -4
0 -14 4 -22 9 -12 7 -13 6 -3 -4z"/>
<path d="M2115 3400 c3 -5 8 -10 11 -10 2 0 4 5 4 10 0 6 -5 10 -11 10 -5 0
-7 -4 -4 -10z"/>
<path d="M2868 3403 c7 -3 16 -2 19 1 4 3 -2 6 -13 5 -11 0 -14 -3 -6 -6z"/>
<path d="M3075 3400 c3 -5 8 -10 11 -10 2 0 4 5 4 10 0 6 -5 10 -11 10 -5 0
-7 -4 -4 -10z"/>
<path d="M3330 3400 c0 -5 5 -10 11 -10 5 0 7 5 4 10 -3 6 -8 10 -11 10 -2 0
-4 -4 -4 -10z"/>
<path d="M3375 3400 c-3 -5 -1 -10 4 -10 6 0 11 5 11 10 0 6 -2 10 -4 10 -3 0
-8 -4 -11 -10z"/>
<path d="M2430 3396 c0 -2 8 -10 18 -17 15 -13 16 -12 3 4 -13 16 -21 21 -21
13z"/>
<path d="M3510 3379 c0 -5 5 -7 10 -4 6 3 10 8 10 11 0 2 -4 4 -10 4 -5 0 -10
-5 -10 -11z"/>
<path d="M12615 3380 c3 -5 8 -10 11 -10 2 0 4 5 4 10 0 6 -5 10 -11 10 -5 0
-7 -4 -4 -10z"/>
<path d="M12631 3353 c-1 -17 16 -25 25 -12 4 7 3 9 -4 5 -5 -3 -13 0 -15 6
-4 9 -6 10 -6 1z"/>
<path d="M12623 3315 c0 -7 6 -11 14 -8 7 3 13 6 13 8 0 2 -6 5 -13 8 -8 3
-14 -1 -14 -8z"/>
<path d="M12620 3256 c0 -2 8 -10 18 -17 15 -13 16 -12 3 4 -13 16 -21 21 -21
13z"/>
<path d="M12615 3220 c3 -5 8 -10 11 -10 2 0 4 5 4 10 0 6 -5 10 -11 10 -5 0
-7 -4 -4 -10z"/>
<path d="M12634 3199 c-3 -6 -1 -16 5 -22 9 -9 10 -7 5 7 -6 15 -4 17 6 11 9
-5 11 -4 6 3 -9 15 -13 15 -22 1z"/>
<path d="M12625 3099 c-4 -6 -5 -12 -2 -15 2 -3 7 2 10 11 7 17 1 20 -8 4z"/>
<path d="M12653 3095 c0 -8 4 -12 9 -9 5 3 6 10 3 15 -9 13 -12 11 -12 -6z"/>
<path d="M12630 3041 c0 -6 4 -12 8 -15 5 -3 9 1 9 9 0 8 -4 15 -9 15 -4 0 -8
-4 -8 -9z"/>
<path d="M12625 3002 c-13 -9 -18 -35 -5 -27 5 3 10 2 10 -3 0 -6 7 -13 16
-16 13 -5 14 -4 6 7 -7 8 -8 18 -4 22 4 5 1 5 -5 1 -7 -4 -13 -3 -13 3 0 5 6
12 13 14 6 3 8 6 2 6 -5 0 -14 -3 -20 -7z"/>
<path d="M12615 2940 c3 -5 8 -10 11 -10 2 0 4 5 4 10 0 6 -5 10 -11 10 -5 0
-7 -4 -4 -10z"/>
<path d="M12623 2868 c-2 -16 0 -17 13 -3 9 8 21 12 27 8 7 -3 9 -2 4 2 -14
16 -43 12 -44 -7z"/>
<path d="M12615 2700 c3 -5 8 -10 11 -10 2 0 4 5 4 10 0 6 -5 10 -11 10 -5 0
-7 -4 -4 -10z"/>
<path d="M12653 2625 c0 -8 4 -12 9 -9 5 3 6 10 3 15 -9 13 -12 11 -12 -6z"/>
<path d="M12625 2539 c-4 -6 -5 -12 -2 -15 2 -3 7 2 10 11 7 17 1 20 -8 4z"/>
<path d="M12630 2361 c0 -6 4 -13 10 -16 6 -3 7 1 4 9 -7 18 -14 21 -14 7z"/>
<path d="M12635 2299 c-4 -6 -5 -12 -2 -15 2 -3 7 2 10 11 7 17 1 20 -8 4z"/>
<path d="M12634 2209 c-3 -6 -2 -15 3 -20 5 -5 9 -1 9 11 0 23 -2 24 -12 9z"/>
<path d="M12607 2037 c-3 -8 1 -14 9 -14 16 0 19 13 5 21 -5 3 -11 0 -14 -7z"/>
<path d="M12599 1993 c-13 -15 -12 -15 9 -4 23 12 28 21 13 21 -5 0 -15 -7
-22 -17z"/>
<path d="M12590 1963 c0 -5 5 -15 11 -23 9 -13 10 -13 6 2 -3 9 -1 19 6 22 7
2 4 5 -5 5 -10 1 -18 -2 -18 -6z"/>
<path d="M3820 1898 c0 -4 4 -8 9 -8 6 0 12 4 15 8 3 5 -1 9 -9 9 -8 0 -15 -4
-15 -9z"/>
<path d="M3880 1895 c0 -9 -6 -12 -17 -8 -10 3 -15 3 -12 -1 4 -4 15 -8 27
-11 15 -3 19 1 15 16 -6 23 -13 25 -13 4z"/>
<path d="M3905 1900 c-3 -6 1 -7 9 -4 18 7 21 14 7 14 -6 0 -13 -4 -16 -10z"/>
<path d="M3936 1895 c-9 -26 -7 -32 5 -12 6 10 9 21 6 23 -2 3 -7 -2 -11 -11z"/>
<path d="M3958 1892 c-3 -11 0 -19 7 -19 7 0 10 8 7 19 -2 10 -6 18 -7 18 -1
0 -5 -8 -7 -18z"/>
<path d="M4016 1895 c-9 -26 -7 -32 5 -12 6 10 9 21 6 23 -2 3 -7 -2 -11 -11z"/>
<path d="M4038 1892 c-3 -11 0 -19 7 -19 7 0 10 8 7 19 -2 10 -6 18 -7 18 -1
0 -5 -8 -7 -18z"/>
<path d="M4117 1891 c-4 -17 -3 -21 5 -13 5 5 8 16 6 23 -3 8 -7 3 -11 -10z"/>
<path d="M4143 1891 c0 -11 5 -18 9 -15 4 3 5 11 1 19 -7 21 -12 19 -10 -4z"/>
<path d="M4200 1895 c0 -9 -6 -12 -17 -8 -10 3 -15 3 -12 -1 4 -4 15 -8 27
-11 15 -3 19 1 15 16 -6 23 -13 25 -13 4z"/>
<path d="M4225 1900 c-3 -6 1 -7 9 -4 18 7 21 14 7 14 -6 0 -13 -4 -16 -10z"/>
<path d="M4256 1895 c-9 -26 -7 -32 5 -12 6 10 9 21 6 23 -2 3 -7 -2 -11 -11z"/>
<path d="M4278 1892 c-3 -11 0 -19 7 -19 7 0 10 8 7 19 -2 10 -6 18 -7 18 -1
0 -5 -8 -7 -18z"/>
<path d="M4336 1895 c-9 -26 -7 -32 5 -12 6 10 9 21 6 23 -2 3 -7 -2 -11 -11z"/>
<path d="M4358 1892 c-3 -11 0 -19 7 -19 7 0 10 8 7 19 -2 10 -6 18 -7 18 -1
0 -5 -8 -7 -18z"/>
<path d="M4437 1891 c-4 -17 -3 -21 5 -13 5 5 8 16 6 23 -3 8 -7 3 -11 -10z"/>
<path d="M4463 1891 c0 -11 5 -18 9 -15 4 3 5 11 1 19 -7 21 -12 19 -10 -4z"/>
<path d="M4486 1901 c8 -9 44 -11 44 -3 0 4 -11 8 -25 8 -13 0 -22 -2 -19 -5z"/>
<path d="M4553 1902 c-7 -5 -3 -11 13 -19 23 -11 24 -10 13 5 -8 9 -14 18 -14
19 0 1 -6 -1 -12 -5z"/>
<path d="M4586 1899 c2 -4 18 -7 34 -7 17 1 28 3 26 5 -8 8 -65 9 -60 2z"/>
<path d="M4660 1898 c0 -4 7 -8 15 -8 8 0 15 4 15 8 0 5 -7 9 -15 9 -8 0 -15
-4 -15 -9z"/>
<path d="M4706 1901 c2 -2 -3 -16 -12 -30 l-15 -26 23 26 c23 26 35 28 73 13
17 -7 17 -6 6 7 -8 8 -29 15 -47 15 -18 0 -31 -2 -28 -5z"/>
<path d="M4826 1898 c3 -4 12 -8 20 -8 8 0 14 4 14 8 0 4 -9 8 -19 8 -11 0
-17 -4 -15 -8z"/>
<path d="M4900 1898 c0 -4 7 -8 15 -8 8 0 15 4 15 8 0 5 -7 9 -15 9 -8 0 -15
-4 -15 -9z"/>
<path d="M4946 1901 c2 -2 -3 -16 -12 -30 l-15 -26 23 26 c15 18 31 25 46 23
12 -2 22 0 22 4 0 4 -16 8 -35 8 -19 0 -32 -2 -29 -5z"/>
<path d="M5033 1902 c-7 -5 -3 -11 13 -19 23 -11 24 -10 13 5 -8 9 -14 18 -14
19 0 1 -6 -1 -12 -5z"/>
<path d="M5066 1899 c2 -4 18 -7 34 -7 17 1 28 3 26 5 -8 8 -65 9 -60 2z"/>
<path d="M5140 1898 c0 -4 7 -8 15 -8 8 0 15 4 15 8 0 5 -7 9 -15 9 -8 0 -15
-4 -15 -9z"/>
<path d="M5186 1901 c2 -2 -3 -16 -12 -30 l-15 -26 23 26 c23 26 35 28 73 13
17 -7 17 -6 6 7 -8 8 -29 15 -47 15 -18 0 -31 -2 -28 -5z"/>
<path d="M5306 1898 c3 -4 12 -8 20 -8 8 0 14 4 14 8 0 4 -9 8 -19 8 -11 0
-17 -4 -15 -8z"/>
<path d="M5380 1898 c0 -4 7 -8 15 -8 8 0 15 4 15 8 0 5 -7 9 -15 9 -8 0 -15
-4 -15 -9z"/>
<path d="M5426 1901 c2 -2 -3 -16 -12 -30 l-15 -26 23 26 c15 18 31 25 46 23
12 -2 22 0 22 4 0 4 -16 8 -35 8 -19 0 -32 -2 -29 -5z"/>
<path d="M5513 1902 c-7 -5 -3 -11 13 -19 23 -11 24 -10 13 5 -8 9 -14 18 -14
19 0 1 -6 -1 -12 -5z"/>
<path d="M5546 1899 c2 -4 18 -7 34 -7 17 1 28 3 26 5 -8 8 -65 9 -60 2z"/>
<path d="M5620 1901 c0 -3 11 -11 24 -17 22 -10 23 -10 14 6 -10 16 -38 24
-38 11z"/>
<path d="M5667 1897 c3 -4 14 -7 26 -5 13 2 21 -2 20 -9 -4 -19 11 -16 23 5
10 16 7 18 -31 17 -24 0 -41 -4 -38 -8z"/>
<path d="M5800 1895 c0 -9 -6 -12 -17 -8 -10 3 -15 3 -12 -1 4 -4 15 -8 27
-11 15 -3 19 1 15 16 -6 23 -13 25 -13 4z"/>
<path d="M5825 1900 c-3 -6 1 -7 9 -4 18 7 21 14 7 14 -6 0 -13 -4 -16 -10z"/>
<path d="M5856 1895 c-9 -26 -7 -32 5 -12 6 10 9 21 6 23 -2 3 -7 -2 -11 -11z"/>
<path d="M5878 1892 c-3 -11 0 -19 7 -19 7 0 10 8 7 19 -2 10 -6 18 -7 18 -1
0 -5 -8 -7 -18z"/>
<path d="M5936 1895 c-9 -26 -7 -32 5 -12 6 10 9 21 6 23 -2 3 -7 -2 -11 -11z"/>
<path d="M5958 1892 c-3 -11 0 -19 7 -19 7 0 10 8 7 19 -2 10 -6 18 -7 18 -1
0 -5 -8 -7 -18z"/>
<path d="M6037 1891 c-4 -17 -3 -21 5 -13 5 5 8 16 6 23 -3 8 -7 3 -11 -10z"/>
<path d="M6063 1891 c0 -11 5 -18 9 -15 4 3 5 11 1 19 -7 21 -12 19 -10 -4z"/>
<path d="M6120 1895 c0 -9 -6 -12 -17 -8 -10 3 -15 3 -12 -1 4 -4 15 -8 27
-11 15 -3 19 1 15 16 -6 23 -13 25 -13 4z"/>
<path d="M6145 1900 c-3 -6 1 -7 9 -4 18 7 21 14 7 14 -6 0 -13 -4 -16 -10z"/>
<path d="M6176 1895 c-9 -26 -7 -32 5 -12 6 10 9 21 6 23 -2 3 -7 -2 -11 -11z"/>
<path d="M6198 1892 c-3 -11 0 -19 7 -19 7 0 10 8 7 19 -2 10 -6 18 -7 18 -1
0 -5 -8 -7 -18z"/>
<path d="M6256 1895 c-9 -26 -7 -32 5 -12 6 10 9 21 6 23 -2 3 -7 -2 -11 -11z"/>
<path d="M6278 1892 c-3 -11 0 -19 7 -19 7 0 10 8 7 19 -2 10 -6 18 -7 18 -1
0 -5 -8 -7 -18z"/>
<path d="M6357 1891 c-4 -17 -3 -21 5 -13 5 5 8 16 6 23 -3 8 -7 3 -11 -10z"/>
<path d="M6383 1891 c0 -11 5 -18 9 -15 4 3 5 11 1 19 -7 21 -12 19 -10 -4z"/>
<path d="M6406 1901 c8 -9 44 -11 44 -3 0 4 -11 8 -25 8 -13 0 -22 -2 -19 -5z"/>
<path d="M6473 1902 c-7 -5 -3 -11 13 -19 23 -11 24 -10 13 5 -8 9 -14 18 -14
19 0 1 -6 -1 -12 -5z"/>
<path d="M6506 1899 c2 -4 18 -7 34 -7 17 1 28 3 26 5 -8 8 -65 9 -60 2z"/>
<path d="M6580 1898 c0 -4 7 -8 15 -8 8 0 15 4 15 8 0 5 -7 9 -15 9 -8 0 -15
-4 -15 -9z"/>
<path d="M6625 1902 c2 -3 0 -13 -5 -23 -7 -12 -6 -20 2 -25 7 -4 10 -4 6 1
-4 4 -3 16 2 26 10 18 26 18 65 3 17 -7 17 -6 6 7 -8 8 -29 15 -47 15 -18 0
-31 -2 -29 -4z"/>
<path d="M6746 1898 c3 -4 12 -8 20 -8 8 0 14 4 14 8 0 4 -9 8 -19 8 -11 0
-17 -4 -15 -8z"/>
<path d="M6820 1898 c0 -4 7 -8 15 -8 8 0 15 4 15 8 0 5 -7 9 -15 9 -8 0 -15
-4 -15 -9z"/>
<path d="M6865 1902 c2 -3 0 -13 -5 -23 -7 -12 -6 -20 2 -25 7 -4 10 -4 6 1
-15 16 11 44 37 39 14 -2 25 -1 25 4 0 4 -16 8 -35 8 -19 0 -32 -2 -30 -4z"/>
<path d="M6953 1902 c-7 -5 -3 -11 13 -19 23 -11 24 -10 13 5 -8 9 -14 18 -14
19 0 1 -6 -1 -12 -5z"/>
<path d="M6986 1899 c2 -4 18 -7 34 -7 17 1 28 3 26 5 -8 8 -65 9 -60 2z"/>
<path d="M7060 1898 c0 -4 7 -8 15 -8 8 0 15 4 15 8 0 5 -7 9 -15 9 -8 0 -15
-4 -15 -9z"/>
<path d="M7106 1901 c2 -2 -3 -16 -12 -30 l-15 -26 23 26 c23 26 35 28 73 13
17 -7 17 -6 6 7 -8 8 -29 15 -47 15 -18 0 -31 -2 -28 -5z"/>
<path d="M7226 1898 c3 -4 12 -8 20 -8 8 0 14 4 14 8 0 4 -9 8 -19 8 -11 0
-17 -4 -15 -8z"/>
<path d="M7300 1898 c0 -4 7 -8 15 -8 8 0 15 4 15 8 0 5 -7 9 -15 9 -8 0 -15
-4 -15 -9z"/>
<path d="M7345 1902 c2 -3 0 -14 -6 -26 l-10 -21 18 21 c11 14 26 20 41 18 12
-2 22 0 22 4 0 4 -16 8 -35 8 -19 0 -32 -2 -30 -4z"/>
<path d="M7433 1902 c-7 -5 -3 -11 13 -19 23 -11 24 -10 13 5 -8 9 -14 18 -14
19 0 1 -6 -1 -12 -5z"/>
<path d="M7467 1897 c3 -4 14 -7 26 -5 13 2 21 -2 20 -9 -4 -19 11 -16 23 5
10 16 7 18 -31 17 -24 0 -41 -4 -38 -8z"/>
<path d="M7560 1904 c0 -2 9 -8 20 -14 15 -8 18 -8 14 3 -4 11 -34 21 -34 11z"/>
<path d="M7660 1898 c0 -4 4 -8 9 -8 6 0 12 4 15 8 3 5 -1 9 -9 9 -8 0 -15 -4
-15 -9z"/>
<path d="M7720 1895 c0 -9 -6 -12 -17 -8 -10 3 -15 3 -12 -1 4 -4 15 -8 27
-11 15 -3 19 1 15 16 -6 23 -13 25 -13 4z"/>
<path d="M7745 1900 c-3 -6 1 -7 9 -4 18 7 21 14 7 14 -6 0 -13 -4 -16 -10z"/>
<path d="M7776 1895 c-9 -26 -7 -32 5 -12 6 10 9 21 6 23 -2 3 -7 -2 -11 -11z"/>
<path d="M7798 1892 c-3 -11 0 -19 7 -19 7 0 10 8 7 19 -2 10 -6 18 -7 18 -1
0 -5 -8 -7 -18z"/>
<path d="M7856 1895 c-9 -26 -7 -32 5 -12 6 10 9 21 6 23 -2 3 -7 -2 -11 -11z"/>
<path d="M7878 1892 c-3 -11 0 -19 7 -19 7 0 10 8 7 19 -2 10 -6 18 -7 18 -1
0 -5 -8 -7 -18z"/>
<path d="M7957 1891 c-4 -17 -3 -21 5 -13 5 5 8 16 6 23 -3 8 -7 3 -11 -10z"/>
<path d="M7983 1891 c0 -11 5 -18 9 -15 4 3 5 11 1 19 -7 21 -12 19 -10 -4z"/>
<path d="M8040 1895 c0 -9 -6 -12 -17 -8 -10 3 -15 3 -12 -1 4 -4 15 -8 27
-11 15 -3 19 1 15 16 -6 23 -13 25 -13 4z"/>
<path d="M8065 1900 c-3 -6 1 -7 9 -4 18 7 21 14 7 14 -6 0 -13 -4 -16 -10z"/>
<path d="M8096 1895 c-9 -26 -7 -32 5 -12 6 10 9 21 6 23 -2 3 -7 -2 -11 -11z"/>
<path d="M8118 1892 c-3 -11 0 -19 7 -19 7 0 10 8 7 19 -2 10 -6 18 -7 18 -1
0 -5 -8 -7 -18z"/>
<path d="M8176 1895 c-9 -26 -7 -32 5 -12 6 10 9 21 6 23 -2 3 -7 -2 -11 -11z"/>
<path d="M8198 1892 c-3 -11 0 -19 7 -19 7 0 10 8 7 19 -2 10 -6 18 -7 18 -1
0 -5 -8 -7 -18z"/>
<path d="M8277 1891 c-4 -17 -3 -21 5 -13 5 5 8 16 6 23 -3 8 -7 3 -11 -10z"/>
<path d="M8303 1891 c0 -11 5 -18 9 -15 4 3 5 11 1 19 -7 21 -12 19 -10 -4z"/>
<path d="M8326 1901 c8 -9 44 -11 44 -3 0 4 -11 8 -25 8 -13 0 -22 -2 -19 -5z"/>
<path d="M8393 1902 c-7 -5 -3 -11 13 -19 23 -11 24 -10 13 5 -8 9 -14 18 -14
19 0 1 -6 -1 -12 -5z"/>
<path d="M8426 1899 c2 -4 18 -7 34 -7 17 1 28 3 26 5 -8 8 -65 9 -60 2z"/>
<path d="M8500 1898 c0 -4 7 -8 15 -8 8 0 15 4 15 8 0 5 -7 9 -15 9 -8 0 -15
-4 -15 -9z"/>
<path d="M8546 1901 c2 -2 -3 -16 -12 -30 l-15 -26 23 26 c23 26 35 28 73 13
17 -7 17 -6 6 7 -8 8 -29 15 -47 15 -18 0 -31 -2 -28 -5z"/>
<path d="M8666 1898 c3 -4 12 -8 20 -8 8 0 14 4 14 8 0 4 -9 8 -19 8 -11 0
-17 -4 -15 -8z"/>
<path d="M8740 1898 c0 -4 7 -8 15 -8 8 0 15 4 15 8 0 5 -7 9 -15 9 -8 0 -15
-4 -15 -9z"/>
<path d="M8786 1901 c2 -2 -3 -16 -12 -30 l-15 -26 23 26 c15 18 31 25 46 23
12 -2 22 0 22 4 0 4 -16 8 -35 8 -19 0 -32 -2 -29 -5z"/>
<path d="M8873 1902 c-7 -5 -3 -11 13 -19 23 -11 24 -10 13 5 -8 9 -14 18 -14
19 0 1 -6 -1 -12 -5z"/>
<path d="M8906 1899 c2 -4 18 -7 34 -7 17 1 28 3 26 5 -8 8 -65 9 -60 2z"/>
<path d="M8980 1898 c0 -4 7 -8 15 -8 8 0 15 4 15 8 0 5 -7 9 -15 9 -8 0 -15
-4 -15 -9z"/>
<path d="M9026 1901 c2 -2 -3 -16 -12 -30 l-15 -26 23 26 c23 26 35 28 73 13
17 -7 17 -6 6 7 -8 8 -29 15 -47 15 -18 0 -31 -2 -28 -5z"/>
<path d="M9146 1898 c3 -4 12 -8 20 -8 8 0 14 4 14 8 0 4 -9 8 -19 8 -11 0
-17 -4 -15 -8z"/>
<path d="M9220 1898 c0 -4 7 -8 15 -8 8 0 15 4 15 8 0 5 -7 9 -15 9 -8 0 -15
-4 -15 -9z"/>
<path d="M9266 1901 c2 -2 -3 -16 -12 -30 l-15 -26 23 26 c15 18 31 25 46 23
12 -2 22 0 22 4 0 4 -16 8 -35 8 -19 0 -32 -2 -29 -5z"/>
<path d="M9353 1902 c-7 -5 -3 -11 13 -19 23 -11 24 -10 13 5 -8 9 -14 18 -14
19 0 1 -6 -1 -12 -5z"/>
<path d="M9386 1899 c2 -4 18 -7 34 -7 17 1 28 3 26 5 -8 8 -65 9 -60 2z"/>
<path d="M9460 1901 c0 -3 11 -11 24 -17 22 -10 23 -10 14 6 -10 16 -38 24
-38 11z"/>
<path d="M9507 1897 c3 -4 14 -7 26 -5 13 2 21 -2 20 -9 -4 -19 11 -16 23 5
10 16 7 18 -31 17 -24 0 -41 -4 -38 -8z"/>
<path d="M9640 1895 c0 -9 -6 -12 -17 -8 -10 3 -15 3 -12 -1 4 -4 15 -8 27
-11 15 -3 19 1 15 16 -6 23 -13 25 -13 4z"/>
<path d="M9665 1900 c-3 -6 1 -7 9 -4 18 7 21 14 7 14 -6 0 -13 -4 -16 -10z"/>
<path d="M9696 1895 c-9 -26 -7 -32 5 -12 6 10 9 21 6 23 -2 3 -7 -2 -11 -11z"/>
<path d="M9718 1892 c-3 -11 0 -19 7 -19 7 0 10 8 7 19 -2 10 -6 18 -7 18 -1
0 -5 -8 -7 -18z"/>
<path d="M9776 1895 c-9 -26 -7 -32 5 -12 6 10 9 21 6 23 -2 3 -7 -2 -11 -11z"/>
<path d="M9798 1892 c-3 -11 0 -19 7 -19 7 0 10 8 7 19 -2 10 -6 18 -7 18 -1
0 -5 -8 -7 -18z"/>
<path d="M9877 1891 c-4 -17 -3 -21 5 -13 5 5 8 16 6 23 -3 8 -7 3 -11 -10z"/>
<path d="M9903 1891 c0 -11 5 -18 9 -15 4 3 5 11 1 19 -7 21 -12 19 -10 -4z"/>
<path d="M9960 1895 c0 -9 -6 -12 -17 -8 -10 3 -15 3 -12 -1 4 -4 15 -8 27
-11 15 -3 19 1 15 16 -6 23 -13 25 -13 4z"/>
<path d="M9985 1900 c-3 -6 1 -7 9 -4 18 7 21 14 7 14 -6 0 -13 -4 -16 -10z"/>
<path d="M10016 1895 c-9 -26 -7 -32 5 -12 6 10 9 21 6 23 -2 3 -7 -2 -11 -11z"/>
<path d="M10038 1892 c-3 -11 0 -19 7 -19 7 0 10 8 7 19 -2 10 -6 18 -7 18 -1
0 -5 -8 -7 -18z"/>
<path d="M10096 1895 c-9 -26 -7 -32 5 -12 6 10 9 21 6 23 -2 3 -7 -2 -11 -11z"/>
<path d="M10118 1892 c-3 -11 0 -19 7 -19 7 0 10 8 7 19 -2 10 -6 18 -7 18 -1
0 -5 -8 -7 -18z"/>
<path d="M10197 1891 c-4 -17 -3 -21 5 -13 5 5 8 16 6 23 -3 8 -7 3 -11 -10z"/>
<path d="M10223 1891 c0 -11 5 -18 9 -15 4 3 5 11 1 19 -7 21 -12 19 -10 -4z"/>
<path d="M10280 1895 c0 -9 -6 -12 -17 -8 -10 3 -15 3 -12 -1 4 -4 15 -8 27
-11 15 -3 19 1 15 16 -6 23 -13 25 -13 4z"/>
<path d="M10305 1900 c-3 -6 1 -7 9 -4 18 7 21 14 7 14 -6 0 -13 -4 -16 -10z"/>
<path d="M10336 1895 c-9 -26 -7 -32 5 -12 6 10 9 21 6 23 -2 3 -7 -2 -11 -11z"/>
<path d="M10358 1892 c-3 -11 0 -19 7 -19 7 0 10 8 7 19 -2 10 -6 18 -7 18 -1
0 -5 -8 -7 -18z"/>
<path d="M10416 1895 c-9 -26 -7 -32 5 -12 6 10 9 21 6 23 -2 3 -7 -2 -11 -11z"/>
<path d="M10438 1892 c-3 -11 0 -19 7 -19 7 0 10 8 7 19 -2 10 -6 18 -7 18 -1
0 -5 -8 -7 -18z"/>
<path d="M10517 1891 c-4 -17 -3 -21 5 -13 5 5 8 16 6 23 -3 8 -7 3 -11 -10z"/>
<path d="M10543 1891 c0 -11 5 -18 9 -15 4 3 5 11 1 19 -7 21 -12 19 -10 -4z"/>
<path d="M10600 1895 c0 -9 -6 -12 -17 -8 -10 3 -15 3 -12 -1 4 -4 15 -8 27
-11 15 -3 19 1 15 16 -6 23 -13 25 -13 4z"/>
<path d="M10625 1900 c-3 -6 1 -7 9 -4 18 7 21 14 7 14 -6 0 -13 -4 -16 -10z"/>
<path d="M10656 1895 c-9 -26 -7 -32 5 -12 6 10 9 21 6 23 -2 3 -7 -2 -11 -11z"/>
<path d="M10678 1892 c-3 -11 0 -19 7 -19 7 0 10 8 7 19 -2 10 -6 18 -7 18 -1
0 -5 -8 -7 -18z"/>
<path d="M10736 1895 c-9 -26 -7 -32 5 -12 6 10 9 21 6 23 -2 3 -7 -2 -11 -11z"/>
<path d="M10758 1892 c-3 -11 0 -19 7 -19 7 0 10 8 7 19 -2 10 -6 18 -7 18 -1
0 -5 -8 -7 -18z"/>
<path d="M10837 1891 c-4 -17 -3 -21 5 -13 5 5 8 16 6 23 -3 8 -7 3 -11 -10z"/>
<path d="M10863 1891 c0 -11 5 -18 9 -15 4 3 5 11 1 19 -7 21 -12 19 -10 -4z"/>
<path d="M10886 1901 c8 -9 44 -11 44 -3 0 4 -11 8 -25 8 -13 0 -22 -2 -19 -5z"/>
<path d="M10953 1902 c-7 -5 -3 -11 13 -19 23 -11 24 -10 13 5 -8 9 -14 18
-14 19 0 1 -6 -1 -12 -5z"/>
<path d="M10986 1899 c2 -4 18 -7 34 -7 17 1 28 3 26 5 -8 8 -65 9 -60 2z"/>
<path d="M11060 1898 c0 -4 7 -8 15 -8 8 0 15 4 15 8 0 5 -7 9 -15 9 -8 0 -15
-4 -15 -9z"/>
<path d="M11106 1901 c2 -2 -3 -16 -12 -30 l-15 -26 23 26 c23 26 35 28 73 13
17 -7 17 -6 6 7 -8 8 -29 15 -47 15 -18 0 -31 -2 -28 -5z"/>
<path d="M11226 1898 c3 -4 12 -8 20 -8 8 0 14 4 14 8 0 4 -9 8 -19 8 -11 0
-17 -4 -15 -8z"/>
<path d="M11300 1898 c0 -4 7 -8 15 -8 8 0 15 4 15 8 0 5 -7 9 -15 9 -8 0 -15
-4 -15 -9z"/>
<path d="M11346 1901 c2 -2 -3 -16 -12 -30 l-15 -26 23 26 c15 18 31 25 46 23
12 -2 22 0 22 4 0 4 -16 8 -35 8 -19 0 -32 -2 -29 -5z"/>
<path d="M11433 1902 c-7 -5 -3 -11 13 -19 23 -11 24 -10 13 5 -8 9 -14 18
-14 19 0 1 -6 -1 -12 -5z"/>
<path d="M11466 1899 c2 -4 18 -7 34 -7 17 1 28 3 26 5 -8 8 -65 9 -60 2z"/>
<path d="M11540 1898 c0 -4 7 -8 15 -8 8 0 15 4 15 8 0 5 -7 9 -15 9 -8 0 -15
-4 -15 -9z"/>
<path d="M11586 1901 c2 -2 -3 -16 -12 -30 l-15 -26 23 26 c23 26 35 28 73 13
17 -7 17 -6 6 7 -8 8 -29 15 -47 15 -18 0 -31 -2 -28 -5z"/>
<path d="M11706 1898 c3 -4 12 -8 20 -8 8 0 14 4 14 8 0 4 -9 8 -19 8 -11 0
-17 -4 -15 -8z"/>
<path d="M11780 1898 c0 -4 7 -8 15 -8 8 0 15 4 15 8 0 5 -7 9 -15 9 -8 0 -15
-4 -15 -9z"/>
<path d="M11826 1901 c2 -2 -3 -16 -12 -30 l-15 -26 23 26 c15 18 31 25 46 23
12 -2 22 0 22 4 0 4 -16 8 -35 8 -19 0 -32 -2 -29 -5z"/>
<path d="M11913 1902 c-7 -5 -3 -11 13 -19 23 -11 24 -10 13 5 -8 9 -14 18
-14 19 0 1 -6 -1 -12 -5z"/>
<path d="M11946 1899 c2 -4 18 -7 34 -7 17 1 28 3 26 5 -8 8 -65 9 -60 2z"/>
<path d="M12020 1901 c0 -3 11 -11 24 -17 22 -10 23 -10 14 6 -10 16 -38 24
-38 11z"/>
<path d="M12067 1897 c3 -4 14 -7 26 -5 13 2 21 -2 20 -9 -4 -19 11 -16 23 5
10 16 7 18 -31 17 -24 0 -41 -4 -38 -8z"/>
<path d="M12200 1895 c0 -9 -6 -12 -17 -8 -10 3 -15 3 -12 -1 4 -4 15 -8 27
-11 15 -3 19 1 15 16 -6 23 -13 25 -13 4z"/>
<path d="M12225 1900 c-3 -6 1 -7 9 -4 18 7 21 14 7 14 -6 0 -13 -4 -16 -10z"/>
<path d="M12256 1895 c-9 -26 -7 -32 5 -12 6 10 9 21 6 23 -2 3 -7 -2 -11 -11z"/>
<path d="M12278 1892 c-3 -11 0 -19 7 -19 7 0 10 8 7 19 -2 10 -6 18 -7 18 -1
0 -5 -8 -7 -18z"/>
<path d="M12336 1895 c-9 -26 -7 -32 5 -12 6 10 9 21 6 23 -2 3 -7 -2 -11 -11z"/>
<path d="M12358 1892 c-3 -11 0 -19 7 -19 7 0 10 8 7 19 -2 10 -6 18 -7 18 -1
0 -5 -8 -7 -18z"/>
<path d="M12464 1891 c0 -9 8 -17 17 -17 18 0 15 22 -5 29 -6 3 -12 -3 -12
-12z"/>
<path d="M3775 1890 c-3 -5 -1 -10 4 -10 6 0 11 5 11 10 0 6 -2 10 -4 10 -3 0
-8 -4 -11 -10z"/>
<path d="M4060 1894 c0 -2 9 -8 20 -14 15 -8 18 -8 14 3 -4 11 -34 21 -34 11z"/>
<path d="M4380 1894 c0 -2 9 -8 20 -14 15 -8 18 -8 14 3 -4 11 -34 21 -34 11z"/>
<path d="M5980 1894 c0 -2 9 -8 20 -14 15 -8 18 -8 14 3 -4 11 -34 21 -34 11z"/>
<path d="M6300 1894 c0 -2 9 -8 20 -14 15 -8 18 -8 14 3 -4 11 -34 21 -34 11z"/>
<path d="M7615 1890 c-3 -5 -1 -10 4 -10 6 0 11 5 11 10 0 6 -2 10 -4 10 -3 0
-8 -4 -11 -10z"/>
<path d="M7900 1894 c0 -2 9 -8 20 -14 15 -8 18 -8 14 3 -4 11 -34 21 -34 11z"/>
<path d="M8220 1894 c0 -2 9 -8 20 -14 15 -8 18 -8 14 3 -4 11 -34 21 -34 11z"/>
<path d="M9820 1894 c0 -2 9 -8 20 -14 15 -8 18 -8 14 3 -4 11 -34 21 -34 11z"/>
<path d="M10140 1894 c0 -2 9 -8 20 -14 15 -8 18 -8 14 3 -4 11 -34 21 -34 11z"/>
<path d="M10460 1894 c0 -2 9 -8 20 -14 15 -8 18 -8 14 3 -4 11 -34 21 -34 11z"/>
<path d="M10780 1894 c0 -2 9 -8 20 -14 15 -8 18 -8 14 3 -4 11 -34 21 -34 11z"/>
<path d="M12380 1894 c0 -2 9 -8 20 -14 15 -8 18 -8 14 3 -4 11 -34 21 -34 11z"/>
<path d="M5016 1867 c3 -10 9 -15 12 -12 3 3 0 11 -7 18 -10 9 -11 8 -5 -6z"/>
<path d="M5496 1867 c3 -10 9 -15 12 -12 3 3 0 11 -7 18 -10 9 -11 8 -5 -6z"/>
<path d="M8856 1867 c3 -10 9 -15 12 -12 3 3 0 11 -7 18 -10 9 -11 8 -5 -6z"/>
<path d="M9336 1867 c3 -10 9 -15 12 -12 3 3 0 11 -7 18 -10 9 -11 8 -5 -6z"/>
<path d="M11416 1867 c3 -10 9 -15 12 -12 3 3 0 11 -7 18 -10 9 -11 8 -5 -6z"/>
<path d="M11896 1867 c3 -10 9 -15 12 -12 3 3 0 11 -7 18 -10 9 -11 8 -5 -6z"/>
<path d="M4567 1859 c7 -7 15 -10 18 -7 3 3 -2 9 -12 12 -14 6 -15 5 -6 -5z"/>
<path d="M4776 1858 c3 -5 10 -6 15 -3 13 9 11 12 -6 12 -8 0 -12 -4 -9 -9z"/>
<path d="M5256 1858 c3 -5 10 -6 15 -3 13 9 11 12 -6 12 -8 0 -12 -4 -9 -9z"/>
<path d="M7596 1858 c3 -5 10 -6 15 -3 13 9 11 12 -6 12 -8 0 -12 -4 -9 -9z"/>
<path d="M8407 1859 c7 -7 15 -10 18 -7 3 3 -2 9 -12 12 -14 6 -15 5 -6 -5z"/>
<path d="M8616 1858 c3 -5 10 -6 15 -3 13 9 11 12 -6 12 -8 0 -12 -4 -9 -9z"/>
<path d="M9096 1858 c3 -5 10 -6 15 -3 13 9 11 12 -6 12 -8 0 -12 -4 -9 -9z"/>
<path d="M10967 1859 c7 -7 15 -10 18 -7 3 3 -2 9 -12 12 -14 6 -15 5 -6 -5z"/>
<path d="M11176 1858 c3 -5 10 -6 15 -3 13 9 11 12 -6 12 -8 0 -12 -4 -9 -9z"/>
<path d="M11656 1858 c3 -5 10 -6 15 -3 13 9 11 12 -6 12 -8 0 -12 -4 -9 -9z"/>
</g>
</svg>
